<?xml version="1.0" encoding="utf-8" ?>
<svg baseProfile="full" height="138px" version="1.1" width="324px" xmlns="http://www.w3.org/2000/svg" xmlns:ev="http://www.w3.org/2001/xml-events" xmlns:xlink="http://www.w3.org/1999/xlink"><defs /><polygon fill="#008000" points="179,103" /><polygon fill="#008000" points="161,99 162,100" /><polygon fill="#008000" points="198,69" /><polygon fill="#008000" points="145,63" /><polygon fill="#008000" points="139,54" /><polygon fill="#008000" points="206,53" /><polygon fill="#008000" points="140,49" /><polygon fill="#008000" points="137,45 138,46" /><polygon fill="#008000" points="157,41" /><polygon fill="#008000" points="146,35 147,36" /><polygon fill="#008000" points="123,26" /><polygon fill="#008000" points="137,25" /><polygon fill="#008000" points="197,20 197,21 192,26 192,27 189,30 189,31 187,33 187,34 185,36 185,37 184,38 184,39 182,41 182,42 181,43 181,44 180,45 180,46 179,47 179,48 178,49 178,50 177,51 177,52 176,53 176,54 175,55 175,56 174,57 174,59 173,60 173,61 172,62 171,61 172,62 172,63 171,64 171,65 170,66 170,68 169,69 169,71 168,72 168,73 167,74 167,76 166,77 166,79 165,80 165,82 164,83 164,85 163,86 163,88 162,89 162,91 163,92 163,94 164,95 164,98 165,99 165,101 166,102 166,103 165,104 167,106 167,110 168,111 168,115 169,116 169,121 170,122 170,127 172,127 172,122 173,121 173,120 174,119 173,118 173,117 174,116 174,112 175,111 175,107 176,106 176,104 177,103 177,100 178,99 178,97 179,96 179,94 180,93 180,91 181,90 181,88 182,87 182,85 183,84 183,83 184,82 184,80 185,79 185,78 186,77 187,78 188,77 187,76 187,74 188,73 188,72 190,70 190,68 193,65 193,64 194,63 194,62 197,59 198,59 197,58 198,57 199,57 199,56 202,53 203,53 204,52 204,51 203,50 203,48 202,47 202,44 201,43 201,39 200,38 201,37 200,36 200,35 199,34 199,29 198,28 198,24 197,23" /><polygon fill="#008000" points="181,19" /><polygon fill="#008000" points="141,19" /><polygon fill="#008000" points="177,17" /><polygon fill="#008000" points="150,14 146,18 145,18 142,21 141,21 139,23 139,24 140,24 141,25 141,27 142,28 142,32 141,33 142,32 144,32 144,31 143,30 143,29 142,28 142,25 143,24 145,24 146,23 147,24 147,31 149,33 149,34 150,35 151,35 152,36 153,36 154,37 159,37 160,36 161,36 165,32 165,31 166,30 166,26 165,25 165,23 166,22 165,23 163,21 167,17 168,17 170,15 171,15 172,14" /><polygon fill="#008000" points="199,9 197,11 196,10 196,11 194,13 193,13 192,14 191,14 188,17 187,17 185,19 184,19 181,22 180,22 175,27 174,27 174,28 173,29 172,29 172,30 166,36 166,37 162,41 162,42 161,43 161,44 160,45 159,45 158,46 157,46 154,43 153,43 151,41 150,41 148,39 147,39 145,37 144,37 143,36 144,35 143,36 142,36 141,35 140,35 139,34 138,34 137,33 135,33 134,32 133,32 132,31 131,31 130,30 127,30 126,29 124,29 123,28 121,28 122,29 123,29 124,30 123,31 124,30 127,33 128,33 140,45 140,46 142,48 142,49 144,51 143,52 144,51 145,52 145,53 148,56 148,57 150,59 150,60 151,61 151,62 153,64 153,66 154,67 154,68 155,69 155,70 156,71 156,73 157,74 157,75 158,76 158,78 159,79 158,80 159,81 159,82 159,81 160,80 160,78 161,77 161,75 162,74 162,72 163,71 163,69 164,68 164,67 165,66 165,64 166,63 166,62 167,61 167,59 168,58 168,57 169,56 169,54 170,53 171,53 170,52 171,51 171,50 172,49 172,48 173,47 173,46 174,45 174,44 175,43 175,42 176,41 176,40 177,39 177,38 178,37 179,37 178,36 180,34 180,33 181,32 181,31 182,30 182,29 185,26 185,25 187,23 187,22 192,17 192,16 198,10 199,10 200,9" /></svg>